<?xml version="1.0" standalone="no"?>
<!DOCTYPE svg PUBLIC "-//W3C//DTD SVG 20010904//EN"
 "http://www.w3.org/TR/2001/REC-SVG-20010904/DTD/svg10.dtd">
<svg version="1.0" xmlns="http://www.w3.org/2000/svg"
 width="1024.000000pt" height="1024.000000pt" viewBox="0 0 1024.000000 1024.000000"
 preserveAspectRatio="xMidYMid meet">
<metadata>
Created by potrace 1.16, written by Peter Selinger 2001-2019
</metadata>
<g transform="translate(0.000000,1024.000000) scale(0.100000,-0.100000)"
fill="#000000" stroke="none">
<path d="M4850 10016 l0 -176 25 0 24 0 3 135 3 135 70 -132 c69 -132 70 -133
105 -133 l35 0 3 173 2 172 -29 0 -30 0 -3 -127 -3 -127 -66 125 c-65 121 -67
124 -103 127 l-36 3 0 -175z"/>
<path d="M4966 9735 c-20 -20 -21 -49 -1 -65 22 -19 45 -4 45 28 0 40 -22 58
-44 37z m24 -36 c0 -11 -4 -17 -10 -14 -5 3 -10 13 -10 21 0 8 5 14 10 14 6 0
10 -9 10 -21z"/>
<path d="M4243 9683 c-18 -7 -16 -58 3 -73 12 -11 18 -10 31 3 13 13 15 23 7
44 -9 28 -21 35 -41 26z m27 -44 c0 -10 -4 -19 -10 -19 -5 0 -10 12 -10 26 0
14 4 23 10 19 6 -3 10 -15 10 -26z"/>
<path d="M4171 9671 c-17 -11 -7 -41 14 -41 20 0 19 -10 -2 -26 -17 -12 -16
-13 5 -14 30 0 37 22 21 60 -15 33 -17 34 -38 21z"/>
<path d="M5726 9656 c4 -16 1 -32 -6 -41 -12 -15 -11 -16 22 -19 7 -1 11 15
11 39 0 30 -4 41 -17 43 -14 3 -16 -1 -10 -22z"/>
<path d="M4104 9659 c-3 -6 0 -15 7 -20 8 -5 10 -9 4 -9 -5 0 -1 -7 9 -15 17
-13 18 -15 3 -15 -9 0 -17 -5 -17 -11 0 -6 10 -9 23 -7 19 3 22 8 19 38 -3 42
-31 65 -48 39z"/>
<path d="M5782 9658 c-30 -30 1 -94 33 -68 21 18 28 49 15 65 -15 18 -32 19
-48 3z m24 -45 c-11 -11 -19 6 -11 24 8 17 8 17 12 0 3 -10 2 -21 -1 -24z"/>
<path d="M4976 9632 c-2 -4 -1 -57 3 -117 l8 -110 2 118 c1 110 -1 128 -13
109z"/>
<path d="M4745 9618 c-4 -10 -4 -26 0 -35 8 -17 8 -17 12 0 3 9 3 25 0 35 -4
16 -4 16 -12 0z"/>
<path d="M4820 9605 c0 -14 5 -25 10 -25 6 0 10 11 10 25 0 14 -4 25 -10 25
-5 0 -10 -11 -10 -25z"/>
<path d="M4900 9606 c0 -14 5 -26 10 -26 6 0 10 9 10 19 0 11 -4 23 -10 26 -6
4 -10 -5 -10 -19z"/>
<path d="M5050 9605 c0 -14 5 -25 10 -25 6 0 10 11 10 25 0 14 -4 25 -10 25
-5 0 -10 -11 -10 -25z"/>
<path d="M5130 9599 c0 -17 4 -28 10 -24 6 3 10 17 10 31 0 13 -4 24 -10 24
-5 0 -10 -14 -10 -31z"/>
<path d="M5205 9618 c-4 -10 -4 -26 0 -35 8 -17 8 -17 12 0 3 9 3 25 0 35 -4
16 -4 16 -12 0z"/>
<path d="M4589 9614 c-3 -23 4 -70 12 -84 5 -10 7 2 5 33 -3 42 -14 76 -17 51z"/>
<path d="M4666 9593 c10 -40 14 -41 14 -5 0 18 -5 32 -10 32 -6 0 -8 -11 -4
-27z"/>
<path d="M5280 9595 c0 -14 5 -25 10 -25 6 0 10 11 10 25 0 14 -4 25 -10 25
-5 0 -10 -11 -10 -25z"/>
<path d="M5366 9608 c-12 -36 -13 -43 -6 -63 6 -17 9 -14 15 17 8 41 1 75 -9
46z"/>
<path d="M4510 9583 c0 -18 5 -33 10 -33 13 0 13 30 0 50 -7 11 -10 7 -10 -17z"/>
<path d="M5436 9584 c-8 -29 -3 -39 13 -29 13 8 15 55 2 55 -5 0 -12 -12 -15
-26z"/>
<path d="M4430 9576 c0 -14 5 -28 10 -31 6 -3 10 5 10 19 0 14 -4 28 -10 31
-6 3 -10 -5 -10 -19z"/>
<path d="M5517 9594 c-10 -10 -9 -54 2 -54 12 0 22 43 13 52 -5 5 -11 5 -15 2z"/>
<path d="M4351 9578 c0 -7 4 -22 9 -33 7 -17 9 -15 9 13 1 17 -3 32 -9 32 -5
0 -10 -6 -9 -12z"/>
<path d="M5590 9559 c0 -17 4 -28 10 -24 6 3 10 17 10 31 0 13 -4 24 -10 24
-5 0 -10 -14 -10 -31z"/>
<path d="M4278 9575 c-8 -8 3 -55 13 -55 5 0 6 12 3 28 -8 32 -9 34 -16 27z"/>
<path d="M5670 9549 c0 -17 4 -28 10 -24 6 3 10 17 10 31 0 13 -4 24 -10 24
-5 0 -10 -14 -10 -31z"/>
<path d="M4200 9553 c0 -28 32 -177 41 -187 4 -4 1 25 -7 65 -8 41 -14 86 -14
101 0 15 -4 30 -10 33 -5 3 -10 -2 -10 -12z"/>
<path d="M5746 9548 c-3 -13 -5 -36 -5 -53 1 -27 2 -26 15 15 8 24 10 48 5 53
-5 5 -11 -2 -15 -15z"/>
<path d="M4124 9528 c3 -13 6 -27 6 -31 0 -5 4 -6 9 -3 11 7 2 56 -11 56 -6 0
-8 -10 -4 -22z"/>
<path d="M5828 9544 c-5 -4 -8 -19 -8 -33 0 -18 3 -22 11 -14 6 6 9 21 7 33
-1 12 -6 18 -10 14z"/>
<path d="M4047 9505 c3 -14 10 -25 15 -25 13 0 6 43 -8 47 -7 2 -10 -6 -7 -22z"/>
<path d="M5895 9509 c-4 -11 -4 -23 0 -27 7 -7 25 17 25 36 0 20 -18 14 -25
-9z"/>
<path d="M3970 9503 c0 -23 16 -48 23 -37 5 10 -9 54 -18 54 -3 0 -5 -8 -5
-17z"/>
<path d="M5978 9514 c-5 -4 -8 -19 -8 -33 0 -18 3 -22 11 -14 6 6 9 21 7 33
-1 12 -6 18 -10 14z"/>
<path d="M3896 9478 c8 -28 12 -33 20 -25 9 8 -6 47 -17 47 -6 0 -7 -10 -3
-22z"/>
<path d="M6047 9478 c-4 -12 -4 -24 -1 -27 6 -7 24 20 24 37 0 21 -17 13 -23
-10z"/>
<path d="M3467 9483 c-12 -12 -7 -50 8 -63 21 -17 45 -5 45 23 0 35 -33 60
-53 40z m33 -39 c0 -8 -4 -12 -10 -9 -5 3 -10 13 -10 21 0 8 5 12 10 9 6 -3
10 -13 10 -21z"/>
<path d="M6490 9480 c0 -5 7 -13 15 -18 13 -7 12 -10 -10 -20 -30 -14 -32 -28
-6 -41 21 -12 32 -5 24 15 -3 8 -1 14 5 14 18 0 22 29 6 45 -17 17 -34 20 -34
5z"/>
<path d="M3820 9463 c0 -22 17 -49 25 -41 8 8 -5 58 -16 58 -5 0 -9 -8 -9 -17z"/>
<path d="M6127 9473 c-4 -3 -7 -20 -7 -37 1 -33 11 -24 24 22 7 21 -3 30 -17
15z"/>
<path d="M3407 9438 c-13 -32 -14 -32 -21 -10 -5 16 -14 22 -27 20 -11 -2 -18
-7 -17 -13 2 -5 7 -9 12 -7 5 2 6 -4 3 -13 -4 -9 -1 -15 8 -15 20 0 19 -10 -2
-26 -17 -12 -17 -13 -1 -14 9 0 24 10 32 21 10 15 21 20 35 16 28 -7 35 8 19
43 -17 38 -25 38 -41 -2z"/>
<path d="M3748 9454 c-3 -5 -1 -20 5 -34 8 -20 11 -22 14 -8 5 20 -12 55 -19
42z"/>
<path d="M5725 9415 c-3 -26 -4 -49 -2 -51 3 -3 8 16 12 41 3 26 4 49 2 51 -3
3 -8 -16 -12 -41z"/>
<path d="M6196 9434 c-6 -24 -2 -43 8 -33 11 10 17 59 8 59 -5 0 -13 -12 -16
-26z"/>
<path d="M6542 9435 c-12 -27 -2 -65 18 -65 15 0 42 47 38 67 -5 29 -43 28
-56 -2z m36 -12 c-2 -9 -8 -18 -15 -20 -7 -3 -9 3 -6 16 6 25 26 28 21 4z"/>
<path d="M3670 9423 c0 -23 16 -48 23 -37 5 10 -9 54 -18 54 -3 0 -5 -8 -5
-17z"/>
<path d="M6278 9434 c-5 -4 -8 -19 -8 -33 0 -18 3 -22 11 -14 6 6 9 21 7 33
-1 12 -6 18 -10 14z"/>
<path d="M6351 9402 c-13 -25 -14 -42 -2 -42 10 0 25 50 17 57 -2 3 -9 -4 -15
-15z"/>
<path d="M3597 9390 c8 -29 25 -37 21 -9 -1 12 -8 24 -15 26 -7 3 -9 -3 -6
-17z"/>
<path d="M3520 9378 c0 -19 18 -43 25 -36 9 9 -4 48 -16 48 -5 0 -9 -6 -9 -12z"/>
<path d="M6423 9370 c-6 -14 -8 -29 -5 -34 7 -13 24 22 19 42 -3 14 -6 12 -14
-8z"/>
<path d="M3451 9350 c0 -14 6 -34 14 -44 14 -19 15 -19 15 5 0 14 -7 34 -15
45 -14 18 -14 18 -14 -6z"/>
<path d="M6471 9273 c-17 -53 -30 -98 -28 -100 3 -2 25 53 74 185 3 6 1 12 -5
12 -5 0 -24 -43 -41 -97z"/>
<path d="M3378 9334 c-3 -5 -1 -20 5 -34 8 -20 11 -22 14 -8 5 20 -12 55 -19
42z"/>
<path d="M6571 9322 c-7 -13 -11 -28 -8 -35 2 -7 9 -2 16 11 7 13 11 28 8 35
-2 7 -9 2 -16 -11z"/>
<path d="M3305 9288 c10 -31 25 -47 25 -26 0 24 -11 48 -22 48 -5 0 -6 -10 -3
-22z"/>
<path d="M6641 9292 c-7 -13 -11 -28 -8 -35 2 -7 9 -2 16 11 7 13 11 28 8 35
-2 7 -9 2 -16 -11z"/>
<path d="M3230 9268 c0 -17 18 -44 24 -37 8 7 -5 49 -15 49 -5 0 -9 -6 -9 -12z"/>
<path d="M6713 9260 c-12 -28 -8 -39 8 -23 6 6 9 19 6 29 -3 17 -5 16 -14 -6z"/>
<path d="M3160 9243 c0 -19 11 -43 21 -43 13 0 11 14 -6 36 -8 10 -15 14 -15
7z"/>
<path d="M6782 9225 c-6 -13 -8 -27 -3 -29 7 -5 31 34 31 49 0 15 -18 1 -28
-20z"/>
<path d="M3090 9209 c0 -8 7 -24 15 -35 11 -15 14 -16 15 -3 0 8 -7 24 -15 35
-11 15 -14 16 -15 3z"/>
<path d="M6850 9190 c-17 -41 -6 -50 14 -11 18 35 19 41 7 41 -5 0 -14 -14
-21 -30z"/>
<path d="M3020 9168 c0 -19 18 -43 25 -36 9 9 -4 48 -16 48 -5 0 -9 -6 -9 -12z"/>
<path d="M6920 9159 c-7 -11 -9 -24 -5 -27 7 -7 35 25 35 40 0 16 -19 8 -30
-13z"/>
<path d="M2741 9156 c-18 -21 7 -68 33 -64 27 4 32 34 10 59 -20 23 -28 24
-43 5z m34 -44 c-8 -9 -25 20 -18 31 3 5 10 2 15 -7 6 -10 7 -20 3 -24z"/>
<path d="M7220 9152 c0 -4 6 -14 13 -21 10 -10 9 -12 -3 -9 -10 2 -14 -3 -12
-14 2 -13 -2 -16 -14 -11 -12 4 -15 2 -12 -8 3 -8 17 -14 31 -14 19 1 27 -4
27 -17 0 -25 32 -23 56 3 13 15 16 24 8 36 -15 24 -29 26 -49 6 -17 -16 -17
-16 -10 5 4 14 2 29 -5 37 -13 16 -30 20 -30 7z m62 -84 c-7 -7 -12 -8 -12 -2
0 14 12 26 19 19 2 -3 -1 -11 -7 -17z"/>
<path d="M2950 9139 c0 -8 7 -24 15 -35 11 -15 14 -16 15 -3 0 8 -7 24 -15 35
-11 15 -14 16 -15 3z"/>
<path d="M6992 9125 c-6 -13 -8 -27 -3 -29 7 -5 31 34 31 49 0 15 -18 1 -28
-20z"/>
<path d="M2680 9125 c-9 -11 -10 -15 -1 -15 7 0 19 -7 28 -15 12 -12 13 -19 3
-30 -10 -12 -10 -15 3 -15 8 0 20 7 27 15 9 11 8 20 -10 45 -24 34 -32 36 -50
15z"/>
<path d="M2880 9102 c0 -5 7 -17 15 -28 15 -19 20 -8 9 20 -6 17 -24 22 -24 8z"/>
<path d="M7060 9089 c-15 -28 -4 -38 15 -13 17 22 19 34 5 34 -5 0 -14 -9 -20
-21z"/>
<path d="M2627 9093 c-13 -12 -7 -22 10 -16 11 4 14 3 9 -5 -4 -7 -1 -12 8
-12 19 0 20 -11 4 -29 -11 -10 -9 -12 7 -9 26 4 30 32 8 57 -18 21 -34 26 -46
14z"/>
<path d="M2810 9064 c0 -15 22 -44 30 -39 6 4 5 14 -3 25 -11 19 -27 27 -27
14z"/>
<path d="M7125 9049 c-4 -11 -4 -23 0 -27 7 -7 25 17 25 36 0 20 -18 14 -25
-9z"/>
<path d="M2740 9032 c0 -8 86 -142 97 -152 4 -3 -5 15 -20 40 -15 25 -34 62
-43 83 -14 33 -34 50 -34 29z"/>
<path d="M7196 9018 c-10 -15 -16 -33 -14 -40 3 -8 11 -2 22 14 10 15 16 33
14 40 -3 8 -11 2 -22 -14z"/>
<path d="M2680 8989 c0 -8 7 -24 15 -35 11 -15 14 -16 15 -3 0 8 -7 24 -15 35
-11 15 -14 16 -15 3z"/>
<path d="M7267 8980 c-9 -13 -14 -27 -11 -32 8 -12 37 29 32 44 -3 7 -11 2
-21 -12z"/>
<path d="M7160 8940 c-6 -11 -8 -20 -6 -20 3 0 10 9 16 20 6 11 8 20 6 20 -3
0 -10 -9 -16 -20z"/>
<path d="M2610 8943 c1 -14 27 -43 33 -37 7 7 -14 44 -25 44 -5 0 -8 -3 -8 -7z"/>
<path d="M7326 8934 c-15 -39 4 -42 24 -3 8 15 7 19 -4 19 -7 0 -17 -7 -20
-16z"/>
<path d="M2550 8891 c10 -21 30 -37 30 -26 0 14 -21 45 -31 45 -6 0 -6 -7 1
-19z"/>
<path d="M7390 8891 c-6 -13 -6 -22 -1 -26 9 -5 31 24 31 39 0 14 -20 4 -30
-13z"/>
<path d="M2480 8864 c0 -15 27 -50 34 -43 4 3 -2 17 -13 30 -11 13 -20 19 -21
13z"/>
<path d="M7462 8858 c-13 -13 -16 -38 -6 -38 8 0 33 32 34 43 0 11 -15 8 -28
-5z"/>
<path d="M2416 8822 c-3 -5 8 -24 24 -43 16 -19 29 -29 30 -23 0 16 -47 76
-54 66z"/>
<path d="M7530 8813 c-8 -10 -21 -29 -29 -43 -12 -22 -10 -22 19 6 18 18 31
37 28 44 -2 7 -9 5 -18 -7z"/>
<path d="M2350 8772 c0 -5 9 -17 20 -27 22 -20 26 -9 6 18 -14 18 -26 22 -26
9z"/>
<path d="M7585 8760 c-18 -20 -15 -38 4 -25 15 9 33 45 23 45 -5 0 -17 -9 -27
-20z"/>
<path d="M2290 8729 c0 -9 9 -24 20 -34 26 -23 26 -8 0 25 -14 18 -20 21 -20
9z"/>
<path d="M7645 8710 c-16 -18 -16 -20 -2 -20 9 0 21 9 27 20 6 11 7 20 2 20
-5 0 -17 -9 -27 -20z"/>
<path d="M2080 8697 c0 -13 9 -32 20 -42 16 -15 22 -15 35 -5 20 17 19 33 -3
53 -27 25 -52 22 -52 -6z m40 -1 c0 -2 3 -12 6 -20 4 -12 2 -15 -9 -10 -21 8
-30 34 -12 34 8 0 15 -2 15 -4z"/>
<path d="M2230 8679 c0 -17 27 -45 35 -37 3 3 -3 16 -14 29 -16 19 -20 20 -21
8z"/>
<path d="M7710 8669 c-15 -28 -4 -38 15 -13 17 22 19 34 5 34 -5 0 -14 -9 -20
-21z"/>
<path d="M7855 8677 c-13 -10 -15 -16 -6 -21 6 -4 9 -11 6 -16 -3 -5 -1 -11 4
-15 12 -7 62 45 55 57 -8 12 -38 10 -59 -5z"/>
<path d="M2032 8668 c-7 -7 -12 -16 -12 -22 0 -6 5 -5 12 2 20 20 28 14 28
-25 0 -35 0 -36 20 -18 11 10 20 23 20 28 0 6 -3 7 -7 4 -3 -4 -11 3 -17 15
-14 27 -28 32 -44 16z"/>
<path d="M7907 8642 c-19 -21 -22 -48 -7 -57 30 -18 81 35 59 61 -16 19 -33
18 -52 -4z m24 -35 c-16 -16 -26 0 -10 19 9 11 15 12 17 4 2 -6 -1 -17 -7 -23z"/>
<path d="M1982 8628 c-17 -17 -15 -33 3 -18 12 10 15 10 15 -4 0 -9 8 -16 17
-16 13 0 14 -3 5 -12 -19 -19 -14 -30 8 -18 26 14 25 30 -4 58 -28 26 -28 26
-44 10z"/>
<path d="M2170 8629 c0 -17 27 -45 35 -37 3 3 -3 16 -14 29 -16 19 -20 20 -21
8z"/>
<path d="M7770 8619 c-15 -28 -4 -38 15 -13 17 22 19 34 5 34 -5 0 -14 -9 -20
-21z"/>
<path d="M2110 8573 c5 -10 40 -49 76 -88 l66 -70 -68 88 c-37 48 -72 87 -76
87 -5 0 -4 -8 2 -17z"/>
<path d="M7823 8563 c-9 -16 -26 -39 -37 -53 -11 -14 1 -5 27 20 46 43 57 60
37 60 -5 0 -17 -12 -27 -27z"/>
<path d="M2050 8534 c0 -17 28 -49 36 -41 4 4 -2 17 -14 30 -12 12 -22 17 -22
11z"/>
<path d="M7886 8518 c-9 -12 -13 -24 -11 -27 6 -5 45 29 45 41 0 15 -19 8 -34
-14z"/>
<path d="M1990 8478 c0 -18 27 -44 37 -34 4 4 -3 16 -15 29 -18 17 -22 18 -22
5z"/>
<path d="M7946 8465 c-9 -14 -13 -25 -8 -25 10 0 42 33 42 43 0 15 -19 5 -34
-18z"/>
<path d="M7739 8453 l-24 -28 28 24 c15 14 27 26 27 28 0 8 -8 1 -31 -24z"/>
<path d="M8005 8420 c-25 -27 -10 -39 16 -13 12 11 17 23 11 27 -5 3 -17 -3
-27 -14z"/>
<path d="M1942 8410 c13 -20 28 -27 28 -12 0 10 -22 32 -32 32 -5 0 -3 -9 4
-20z"/>
<path d="M1885 8360 c10 -11 23 -20 28 -20 6 0 2 9 -8 20 -10 11 -23 20 -28
20 -6 0 -2 -9 8 -20z"/>
<path d="M8057 8362 c-10 -10 -14 -22 -10 -25 7 -8 43 21 43 35 0 14 -16 9
-33 -10z"/>
<path d="M1822 8320 c2 -8 70 -80 153 -160 l150 -145 -129 135 c-72 74 -140
146 -154 160 -14 15 -22 19 -20 10z"/>
<path d="M7985 8172 l-150 -157 155 150 c85 83 157 153 158 158 12 26 -31 -14
-163 -151z"/>
<path d="M1775 8250 c10 -11 23 -20 28 -20 6 0 2 9 -8 20 -10 11 -23 20 -28
20 -6 0 -2 -9 8 -20z"/>
<path d="M8167 8252 c-10 -10 -14 -22 -10 -25 7 -8 43 21 43 35 0 14 -16 9
-33 -10z"/>
<path d="M1725 8190 c10 -11 23 -20 28 -20 6 0 2 9 -8 20 -10 11 -23 20 -28
20 -6 0 -2 -9 8 -20z"/>
<path d="M8220 8195 c-21 -25 -1 -31 23 -7 17 18 18 22 5 22 -8 0 -21 -7 -28
-15z"/>
<path d="M1509 8154 c-11 -14 -10 -20 14 -40 30 -25 57 -22 57 7 0 16 -34 49
-51 49 -4 0 -13 -7 -20 -16z m51 -30 c0 -8 -6 -11 -15 -8 -8 4 -15 12 -15 20
0 8 6 11 15 8 8 -4 15 -12 15 -20z"/>
<path d="M1660 8153 c0 -5 9 -18 20 -28 11 -10 20 -14 20 -8 0 5 -9 18 -20 28
-11 10 -20 14 -20 8z"/>
<path d="M8275 8140 c-10 -11 -15 -23 -12 -27 8 -7 47 25 47 39 0 14 -16 9
-35 -12z"/>
<path d="M8441 8137 c-6 -8 -9 -22 -5 -31 7 -19 -7 -21 -25 -3 -10 10 -12 8
-9 -8 2 -14 11 -20 28 -20 22 0 25 4 23 30 -2 22 0 26 7 15 5 -8 12 -11 16 -7
4 4 1 14 -7 23 -14 13 -17 13 -28 1z"/>
<path d="M1467 8103 c-13 -12 -7 -23 13 -23 12 0 24 -9 28 -21 8 -21 9 -21 27
-3 18 19 18 19 -2 22 -12 2 -27 10 -33 18 -14 15 -23 18 -33 7z"/>
<path d="M1610 8093 c0 -5 9 -18 20 -28 11 -10 20 -14 20 -8 0 5 -9 18 -20 28
-11 10 -20 14 -20 8z"/>
<path d="M8325 8080 c-10 -11 -16 -22 -14 -25 7 -6 49 24 49 36 0 15 -16 10
-35 -11z"/>
<path d="M8472 8084 c-28 -19 -30 -64 -4 -64 20 0 52 29 52 47 0 24 -26 33
-48 17z m26 -26 c-3 -7 -13 -15 -24 -17 -16 -3 -17 -1 -5 13 16 19 34 21 29 4z"/>
<path d="M1433 8063 c-7 -3 -13 -12 -13 -20 0 -13 3 -13 15 -3 12 10 15 10 15
-4 0 -9 7 -16 16 -16 14 0 14 -3 4 -15 -10 -12 -10 -15 3 -15 20 0 30 29 15
47 -16 20 -41 31 -55 26z"/>
<path d="M4975 8060 c-3 -5 -32 -10 -64 -10 -31 0 -82 -4 -112 -9 -30 -5 -94
-14 -144 -21 -99 -12 -96 -12 -320 -70 -44 -12 -98 -26 -120 -31 -22 -6 -49
-15 -60 -19 -11 -5 -51 -21 -90 -36 -38 -14 -74 -30 -80 -35 -5 -5 -15 -9 -22
-9 -47 0 -386 -186 -553 -304 -236 -166 -537 -458 -675 -656 -21 -30 -55 -77
-75 -105 -70 -96 -252 -429 -275 -505 -4 -14 -16 -43 -25 -65 -37 -85 -53
-129 -101 -295 -6 -19 -14 -53 -19 -75 -4 -22 -17 -76 -28 -120 -19 -79 -43
-261 -59 -442 -16 -187 14 -575 59 -758 11 -44 24 -100 29 -125 19 -100 92
-325 121 -378 10 -18 18 -37 18 -42 0 -9 50 -121 94 -208 77 -156 250 -418
361 -547 197 -230 390 -403 635 -569 93 -62 114 -75 255 -151 205 -111 495
-223 660 -255 33 -7 78 -16 100 -21 264 -62 413 -76 715 -67 247 7 326 16 545
66 22 5 75 17 117 26 43 9 96 23 119 31 23 8 48 15 55 15 7 0 37 11 66 24 29
13 91 39 138 56 94 35 172 73 299 143 46 26 85 47 87 47 6 0 179 115 239 160
182 135 380 318 488 450 34 41 64 77 67 80 6 5 113 151 188 256 17 23 56 91
87 150 32 60 65 120 75 134 15 23 90 200 90 214 0 3 11 29 24 58 48 102 117
352 146 523 24 144 32 200 40 305 17 212 9 438 -20 625 -7 39 -15 93 -19 120
-13 82 -61 286 -82 346 -10 30 -19 61 -19 67 0 6 -12 37 -26 69 -14 32 -29 67
-34 78 -5 11 -18 45 -29 76 -23 65 -50 123 -106 224 -21 39 -51 94 -67 123
-130 238 -397 551 -658 773 -108 93 -300 225 -425 293 -38 22 -77 44 -85 51
-13 10 -141 68 -290 130 -139 59 -258 95 -475 146 -37 9 -70 14 -230 40 -33 6
-159 13 -280 16 -121 3 -225 9 -232 14 -7 7 -14 6 -18 -1z m470 -116 c55 -8
132 -19 170 -24 102 -14 151 -26 355 -86 59 -18 81 -25 120 -42 14 -5 48 -18
75 -27 165 -57 519 -256 675 -379 36 -28 77 -59 93 -69 15 -10 105 -95 200
-190 176 -176 289 -314 406 -499 52 -84 75 -122 122 -208 8 -14 81 -171 114
-245 23 -53 57 -148 71 -205 8 -30 26 -93 40 -140 37 -122 41 -137 54 -220 6
-41 16 -100 22 -130 6 -30 13 -181 15 -334 5 -287 -4 -417 -44 -601 -8 -38
-18 -88 -22 -110 -5 -22 -17 -67 -28 -100 -11 -33 -26 -80 -33 -105 -35 -125
-56 -179 -113 -300 -16 -36 -43 -93 -58 -127 -29 -63 -113 -206 -177 -303 -35
-51 -51 -73 -152 -205 -160 -211 -449 -468 -710 -633 -172 -109 -519 -274
-626 -297 -16 -4 -40 -10 -54 -15 -14 -4 -45 -13 -70 -20 -25 -7 -54 -16 -65
-20 -63 -24 -216 -51 -420 -76 -147 -17 -415 -19 -415 -3 0 8 -5 8 -15 -1 -29
-24 -408 31 -590 86 -27 9 -84 24 -125 35 -106 28 -169 52 -310 117 -299 137
-551 302 -772 505 -105 95 -273 278 -338 367 -25 33 -50 66 -56 73 -38 44
-194 306 -253 427 -69 143 -134 299 -146 356 -4 16 -10 38 -15 49 -41 100 -93
364 -121 610 -12 107 -6 436 10 560 24 187 54 341 84 437 8 24 20 63 27 88 76
270 265 637 459 891 182 240 467 506 709 661 46 29 95 61 110 70 31 20 343
177 388 195 49 20 147 54 179 63 17 4 57 17 90 28 33 11 83 25 110 31 28 7 66
16 87 22 20 5 69 14 110 19 40 5 120 17 178 25 57 8 133 15 168 14 34 -1 66 2
70 6 10 11 300 -4 417 -21z"/>
<path d="M5110 6572 c0 -646 3 -851 12 -860 9 -9 9 -15 0 -24 -9 -9 -12 -80
-12 -260 0 -159 -4 -248 -10 -248 -6 0 -10 91 -10 254 0 249 0 255 -21 261
l-21 7 21 15 21 14 0 825 c0 510 -4 824 -9 824 -6 0 -25 -25 -43 -55 -19 -32
-38 -53 -45 -50 -8 2 -13 -3 -13 -14 0 -20 -51 -121 -96 -191 -16 -25 -34 -54
-40 -65 -72 -127 -100 -175 -118 -200 -26 -37 -116 -186 -116 -193 0 -2 -10
-18 -22 -35 -13 -18 -30 -44 -38 -58 -8 -14 -33 -56 -55 -93 -22 -37 -44 -75
-50 -85 -46 -80 -103 -174 -126 -211 -41 -65 -183 -300 -241 -400 -27 -47 -53
-86 -59 -88 -5 -2 -9 -8 -9 -12 0 -5 -17 -37 -38 -72 -22 -35 -59 -96 -83
-137 -24 -40 -54 -90 -67 -110 -12 -20 -31 -55 -42 -78 -12 -23 -30 -49 -41
-57 -13 -9 -19 -22 -17 -38 2 -18 8 -22 28 -20 14 2 27 8 28 13 2 5 13 9 25 9
22 -1 22 -1 2 -16 -11 -8 -31 -18 -45 -21 -14 -3 -37 -15 -53 -27 -22 -16 -25
-22 -15 -32 7 -7 83 -53 168 -103 85 -49 180 -105 210 -124 30 -19 87 -51 125
-72 39 -21 90 -52 115 -69 25 -17 54 -36 65 -42 11 -6 61 -34 110 -62 50 -27
113 -65 142 -83 28 -19 113 -70 188 -114 75 -43 145 -90 155 -102 10 -13 20
-19 22 -13 2 6 18 2 40 -10 21 -11 42 -20 48 -20 7 0 10 159 10 460 0 300 3
460 10 460 7 0 10 -161 10 -464 0 -316 3 -467 11 -471 5 -4 27 4 47 17 35 24
165 101 207 123 24 13 254 151 304 182 20 12 61 35 91 51 30 16 82 46 115 67
33 22 101 62 150 91 152 87 470 275 478 283 12 12 -2 38 -26 46 -21 7 -20 8 6
12 15 2 27 8 27 13 0 16 -24 65 -42 84 -10 11 -21 28 -24 39 -3 11 -33 62 -65
113 -33 52 -71 116 -86 142 -14 26 -45 76 -68 112 -23 36 -57 92 -75 125 -19
33 -41 71 -51 85 -26 38 -329 542 -329 547 0 2 -33 57 -73 121 -82 131 -183
297 -235 387 -19 33 -54 89 -77 125 -23 36 -61 99 -84 140 -23 41 -66 115 -96
163 -30 48 -55 92 -55 96 0 9 -34 41 -43 41 -4 0 -7 -382 -7 -848z m-85 -892
c-3 -5 -10 -10 -16 -10 -5 0 -9 5 -9 10 0 6 7 10 16 10 8 0 12 -4 9 -10z m173
1 c9 -5 36 -17 60 -26 23 -10 42 -22 42 -27 0 -4 9 -8 19 -8 11 0 23 -4 26
-10 3 -5 -2 -10 -13 -10 -22 0 -79 27 -87 41 -4 5 -15 9 -26 9 -10 0 -19 5
-19 10 0 6 -6 10 -14 10 -8 0 -18 5 -21 10 -8 12 10 13 33 1z m-228 -21 c0 -5
-7 -10 -15 -10 -8 0 -15 -4 -15 -10 0 -13 -65 -42 -87 -38 -12 2 1 14 42 35
66 35 75 38 75 23z m-157 -77 c-12 -2 -27 -11 -33 -19 -7 -8 -20 -14 -29 -14
-12 0 -10 5 9 20 14 11 36 19 50 18 22 -1 23 -1 3 -5z m610 -5 c15 -7 27 -16
27 -20 0 -11 -2 -10 -51 12 -28 12 -37 20 -23 20 11 0 32 -6 47 -12z m-713
-35 c0 -5 -19 -17 -43 -28 -23 -11 -44 -22 -47 -25 -3 -3 -18 -11 -35 -19 -16
-7 -42 -20 -57 -27 -30 -16 -57 -19 -42 -5 13 14 196 108 212 110 6 0 12 -2
12 -6z m834 -18 c31 -14 74 -36 96 -50 22 -14 46 -25 55 -25 8 0 15 -4 15 -10
0 -5 -4 -10 -10 -10 -11 0 -122 52 -130 61 -3 3 -26 14 -52 25 -27 10 -48 22
-48 27 0 12 14 8 74 -18z m-1173 -146 c-18 -10 -38 -19 -45 -19 -7 0 -19 -7
-26 -15 -7 -8 -16 -15 -21 -15 -5 0 -29 -9 -54 -21 -52 -24 -85 -21 -36 4 19
9 38 17 43 17 5 0 24 11 42 25 18 14 43 25 54 25 12 0 22 4 22 9 0 11 31 20
43 13 5 -2 -5 -13 -22 -23z m1509 -8 c30 -16 75 -39 100 -52 34 -17 41 -23 26
-27 -10 -2 -21 0 -25 5 -3 6 -27 18 -53 28 -27 10 -48 22 -48 26 0 5 -7 9 -15
9 -8 0 -29 9 -47 20 -53 32 -3 24 62 -9z m-1800 -118 c0 -8 -117 -65 -157 -77
-14 -5 -23 -3 -23 3 0 6 9 11 19 11 11 0 21 4 23 9 4 12 98 59 121 60 9 1 17
-2 17 -6z m2068 -2 c9 -5 35 -17 57 -27 22 -11 42 -22 43 -26 2 -5 10 -8 17
-8 8 0 17 -5 21 -11 4 -8 -1 -9 -17 -4 -36 11 -121 52 -144 69 -22 17 -6 22
23 7z m278 -131 c29 -14 33 -19 18 -20 -20 0 -84 27 -84 36 0 10 29 3 66 -16z"/>
<path d="M3747 4663 c4 -10 70 -107 147 -215 124 -174 203 -285 318 -449 18
-26 74 -104 123 -173 50 -70 134 -188 187 -264 53 -75 131 -184 173 -242 228
-317 285 -404 286 -440 0 -21 2 -22 8 -6 8 20 8 20 64 -59 10 -14 22 -23 28
-20 5 4 9 222 9 549 l0 543 -52 34 c-29 18 -66 41 -83 50 -33 18 -119 68 -365
214 -147 87 -274 162 -365 215 -16 9 -91 53 -165 97 -74 44 -162 95 -195 113
-33 18 -71 42 -84 52 -30 23 -42 23 -34 1z"/>
<path d="M6450 4661 c-42 -22 -238 -136 -375 -218 -55 -33 -107 -62 -115 -66
-8 -4 -55 -32 -104 -62 -49 -30 -90 -55 -92 -55 -2 0 -76 -44 -166 -98 -90
-55 -190 -114 -223 -131 -33 -18 -66 -38 -74 -44 -15 -12 -19 -15 -120 -72
l-71 -40 0 -557 c0 -322 4 -559 9 -562 8 -5 55 57 251 334 33 47 97 136 142
198 46 63 92 128 103 146 11 18 52 77 92 132 76 105 108 151 198 279 31 44 81
114 111 155 29 41 81 115 115 164 33 49 66 94 72 101 7 6 35 44 62 84 28 39
83 117 123 174 67 92 108 157 99 157 -1 0 -18 -8 -37 -19z"/>
<path d="M1550 8032 c0 -5 21 -23 48 -41 46 -33 47 -33 22 -5 -42 48 -70 66
-70 46z"/>
<path d="M8320 7968 c-41 -39 -55 -55 -30 -34 25 20 62 48 83 61 33 23 49 46
30 45 -5 -1 -42 -33 -83 -72z"/>
<path d="M1515 7960 c10 -11 23 -20 28 -20 6 0 2 9 -8 20 -10 11 -23 20 -28
20 -6 0 -2 -9 8 -20z"/>
<path d="M8425 7960 c-14 -16 -15 -20 -4 -20 16 0 39 19 39 32 0 14 -16 9 -35
-12z"/>
<path d="M1682 7925 c15 -16 29 -27 31 -24 3 2 -10 15 -27 28 l-31 24 27 -28z"/>
<path d="M1460 7912 c0 -10 22 -32 32 -32 15 0 8 15 -12 28 -11 7 -20 9 -20 4z"/>
<path d="M8477 7902 c-25 -27 -21 -35 8 -16 25 16 33 34 17 34 -5 0 -16 -8
-25 -18z"/>
<path d="M1410 7852 c0 -10 33 -42 43 -42 15 0 5 19 -18 34 -14 9 -25 13 -25
8z"/>
<path d="M8527 7842 c-25 -27 -21 -35 8 -16 25 16 33 34 17 34 -5 0 -16 -8
-25 -18z"/>
<path d="M8570 7780 c-14 -10 -22 -22 -18 -25 9 -9 48 17 48 32 0 16 0 16 -30
-7z"/>
<path d="M1379 7769 c13 -11 26 -17 29 -14 8 8 -20 35 -37 35 -12 -1 -11 -5 8
-21z"/>
<path d="M1320 7721 c0 -5 17 -19 37 -31 31 -18 35 -19 22 -3 -28 36 -59 54
-59 34z"/>
<path d="M8594 7698 l-29 -31 43 23 c42 24 54 40 29 40 -7 0 -26 -14 -43 -32z"/>
<path d="M8659 7651 c-13 -11 -21 -22 -18 -25 3 -4 17 2 30 13 13 11 21 22 18
25 -3 4 -17 -2 -30 -13z"/>
<path d="M1284 7645 c22 -17 36 -19 36 -6 0 10 -24 21 -43 21 -7 0 -3 -7 7
-15z"/>
<path d="M1230 7592 c0 -11 41 -34 48 -27 4 4 -2 13 -12 21 -22 15 -36 18 -36
6z"/>
<path d="M8694 7586 c-10 -8 -16 -17 -12 -21 8 -8 48 13 48 25 0 14 -13 12
-36 -4z"/>
<path d="M8740 7519 c-18 -13 -20 -19 -9 -19 21 0 54 25 43 33 -5 3 -21 -3
-34 -14z"/>
<path d="M1200 7515 c7 -8 19 -15 27 -15 13 0 13 3 3 15 -7 8 -19 15 -27 15
-13 0 -13 -3 -3 -15z"/>
<path d="M1044 7505 c-3 -8 -3 -18 0 -23 3 -6 -3 -12 -14 -15 -22 -6 -26 -36
-7 -56 10 -11 8 -12 -9 -7 -22 7 -53 -18 -40 -31 4 -4 11 -1 16 7 7 10 10 11
10 3 0 -7 9 -13 19 -13 14 0 18 -5 14 -20 -7 -26 3 -26 17 1 8 15 8 24 0 34
-9 11 -6 14 12 17 16 2 23 9 22 25 0 14 7 25 18 29 21 6 24 34 6 52 -17 17
-57 15 -64 -3z m51 -16 c12 -19 -5 -23 -22 -6 -16 16 -16 17 -1 17 9 0 20 -5
23 -11z m-34 -55 c12 -14 11 -16 -5 -13 -11 2 -21 10 -24 17 -5 17 13 15 29
-4z"/>
<path d="M8882 7484 c-27 -18 -28 -38 -4 -56 9 -7 17 -22 17 -33 0 -30 48 -33
69 -4 18 26 6 49 -25 49 -11 0 -19 5 -19 11 0 5 4 8 9 4 17 -10 21 13 5 29
-19 20 -24 20 -52 0z m66 -76 c-3 -7 -13 -15 -24 -17 -16 -3 -17 -1 -5 13 16
19 34 21 29 4z"/>
<path d="M1150 7460 c0 -12 35 -31 44 -23 3 3 -2 12 -12 19 -20 16 -32 17 -32
4z"/>
<path d="M8784 7456 c-10 -8 -16 -17 -12 -21 7 -7 48 16 48 27 0 12 -14 9 -36
-6z"/>
<path d="M1110 7392 c0 -9 44 -32 58 -32 10 1 -38 40 -49 40 -5 0 -9 -4 -9 -8z"/>
<path d="M8777 7361 c-82 -55 -81 -57 6 -14 72 36 94 53 65 53 -7 0 -39 -18
-71 -39z"/>
<path d="M1180 7356 c0 -3 9 -10 20 -16 11 -6 20 -8 20 -6 0 3 -9 10 -20 16
-11 6 -20 8 -20 6z"/>
<path d="M8859 7320 c-18 -14 -20 -19 -8 -20 22 0 54 25 42 33 -6 4 -22 -2
-34 -13z"/>
<path d="M1080 7315 c14 -16 40 -20 40 -6 0 9 -24 21 -42 21 -6 0 -6 -6 2 -15z"/>
<path d="M1035 7260 c-3 -5 3 -14 14 -19 23 -13 31 -14 31 -3 0 13 -39 32 -45
22z"/>
<path d="M8903 7257 c-25 -11 -31 -27 -9 -27 14 0 42 28 35 34 -2 2 -14 -1
-26 -7z"/>
<path d="M1000 7190 c0 -9 31 -30 44 -30 16 0 3 18 -19 28 -14 7 -25 8 -25 2z"/>
<path d="M8934 7186 c-10 -8 -16 -17 -12 -21 8 -8 48 13 48 25 0 14 -13 12
-36 -4z"/>
<path d="M960 7120 c0 -12 40 -33 48 -25 4 4 -2 13 -12 21 -23 16 -36 18 -36
4z"/>
<path d="M8964 7116 c-10 -8 -16 -17 -12 -21 8 -8 48 13 48 25 0 14 -13 12
-36 -4z"/>
<path d="M930 7050 c0 -11 33 -30 52 -30 7 1 3 9 -11 20 -25 22 -41 26 -41 10z"/>
<path d="M8995 7043 c-23 -13 -26 -18 -13 -21 20 -4 58 14 58 28 0 14 -10 12
-45 -7z"/>
<path d="M900 6980 c0 -9 31 -30 44 -30 16 0 3 18 -19 28 -14 7 -25 8 -25 2z"/>
<path d="M9031 6976 c-15 -8 -20 -16 -13 -20 13 -8 52 10 52 24 0 13 -10 12
-39 -4z"/>
<path d="M865 6910 c-4 -6 6 -15 20 -20 32 -12 35 -12 35 -2 0 14 -48 33 -55
22z"/>
<path d="M9073 6909 c-22 -8 -32 -29 -15 -29 12 0 48 28 42 33 -3 3 -15 1 -27
-4z"/>
<path d="M844 6825 c22 -17 46 -20 46 -6 0 10 -25 21 -48 21 -15 -1 -14 -3 2
-15z"/>
<path d="M9084 6825 c-15 -11 -16 -14 -3 -15 8 0 24 7 35 15 15 11 16 14 3 15
-8 0 -24 -7 -35 -15z"/>
<path d="M700 6795 c-10 -12 -10 -19 -2 -27 8 -8 5 -15 -10 -28 -14 -11 -19
-23 -15 -33 7 -18 47 -24 47 -7 0 6 4 10 10 10 5 0 7 -7 4 -15 -4 -8 -1 -15 6
-15 8 0 11 10 8 29 -3 20 1 32 14 40 22 14 23 25 2 45 -20 20 -48 20 -64 1z
m44 -11 c17 -6 22 -24 8 -24 -5 0 -17 7 -28 15 -19 15 -8 20 20 9z m-34 -64
c0 -5 -4 -10 -10 -10 -5 0 -10 5 -10 10 0 6 5 10 10 10 6 0 10 -4 10 -10z"/>
<path d="M9256 6765 c5 -11 -1 -15 -25 -15 -17 0 -31 -4 -31 -10 0 -10 72 -14
82 -4 10 9 -4 44 -18 44 -8 0 -11 -6 -8 -15z"/>
<path d="M810 6761 c0 -11 39 -26 47 -17 8 8 3 12 -24 20 -13 4 -23 3 -23 -3z"/>
<path d="M9114 6755 c-16 -12 -17 -14 -2 -15 23 0 48 11 48 21 0 14 -24 11
-46 -6z"/>
<path d="M9237 6705 c-26 -19 -18 -49 14 -53 34 -4 67 31 49 53 -15 19 -39 19
-63 0z m43 -14 c0 -11 -31 -24 -39 -16 -3 3 1 10 9 15 19 12 30 12 30 1z"/>
<path d="M780 6690 c0 -13 43 -30 73 -30 17 1 12 5 -18 20 -46 22 -55 24 -55
10z"/>
<path d="M9130 6680 c-29 -16 -31 -19 -13 -20 26 0 73 20 73 32 0 13 -22 9
-60 -12z"/>
<path d="M661 6677 c-6 -6 -11 -18 -10 -26 0 -11 2 -12 6 -3 8 19 31 14 38 -9
9 -26 29 -19 33 12 2 19 1 21 -7 9 -9 -12 -11 -12 -16 2 -9 22 -30 29 -44 15z"/>
<path d="M9015 6635 c-16 -7 -23 -14 -15 -14 8 0 26 6 40 14 32 18 14 18 -25
0z"/>
<path d="M940 6630 c8 -5 22 -9 30 -9 10 0 8 3 -5 9 -27 12 -43 12 -25 0z"/>
<path d="M9175 6616 c-19 -8 -25 -15 -17 -20 13 -8 52 10 52 24 0 12 2 12 -35
-4z"/>
<path d="M750 6615 c0 -9 44 -23 54 -18 4 3 2 9 -5 14 -15 10 -49 12 -49 4z"/>
<path d="M730 6541 c0 -10 42 -23 49 -15 7 6 -20 24 -36 24 -7 0 -13 -4 -13
-9z"/>
<path d="M9198 6543 c-10 -2 -18 -9 -18 -15 0 -6 10 -8 23 -4 12 3 25 6 30 6
4 0 7 5 7 10 0 10 -12 11 -42 3z"/>
<path d="M705 6470 c-3 -4 2 -11 11 -14 23 -9 46 -7 40 3 -8 12 -45 21 -51 11z"/>
<path d="M9220 6468 c-21 -9 -22 -12 -7 -15 23 -6 47 3 47 17 0 12 -8 12 -40
-2z"/>
<path d="M686 6391 c15 -14 54 -23 54 -13 0 11 -24 22 -48 22 -10 0 -12 -3 -6
-9z"/>
<path d="M9231 6391 c-7 -5 -9 -11 -4 -14 13 -8 53 3 53 14 0 11 -31 11 -49 0z"/>
<path d="M665 6320 c-7 -11 38 -24 57 -18 7 3 -2 10 -20 16 -18 6 -34 7 -37 2z"/>
<path d="M9255 6315 l-30 -13 27 -1 c34 -1 59 9 52 20 -7 12 -13 11 -49 -6z"/>
<path d="M640 6241 c0 -11 49 -21 55 -11 5 9 -18 20 -41 20 -8 0 -14 -4 -14
-9z"/>
<path d="M9277 6243 c-15 -14 -6 -24 16 -18 35 11 44 25 16 25 -14 0 -29 -3
-32 -7z"/>
<path d="M9300 6167 l-25 -10 24 -5 c13 -2 28 1 33 6 15 15 -4 21 -32 9z"/>
<path d="M630 6160 c20 -13 53 -13 45 0 -3 6 -18 10 -33 10 -21 0 -24 -2 -12
-10z"/>
<path d="M610 6091 c0 -5 11 -11 25 -13 28 -6 34 6 9 16 -22 8 -34 7 -34 -3z"/>
<path d="M9310 6090 c-8 -5 -12 -12 -8 -15 8 -8 58 5 58 16 0 12 -31 11 -50
-1z"/>
<path d="M480 6022 c0 -11 10 -27 23 -35 l22 -16 -25 2 c-19 1 -26 -3 -28 -19
-2 -17 4 -23 29 -28 17 -3 35 -3 40 0 14 8 11 44 -3 44 -8 1 -5 6 5 15 31 22
17 50 -26 53 -31 3 -37 0 -37 -16z m50 -2 c8 -5 11 -12 8 -16 -10 -9 -38 3
-38 16 0 12 10 13 30 0z m0 -70 c0 -5 -5 -10 -11 -10 -5 0 -7 5 -4 10 3 6 8
10 11 10 2 0 4 -4 4 -10z"/>
<path d="M595 6010 c3 -5 17 -10 31 -10 14 0 22 4 19 10 -3 6 -17 10 -31 10
-14 0 -22 -4 -19 -10z"/>
<path d="M9320 6010 c0 -5 11 -10 25 -10 14 0 25 5 25 10 0 6 -11 10 -25 10
-14 0 -25 -4 -25 -10z"/>
<path d="M9409 5994 c-11 -14 -10 -19 10 -35 13 -11 18 -19 11 -19 -6 0 -10
-10 -8 -22 4 -29 58 -38 78 -14 16 20 -2 45 -34 47 -20 1 -20 2 -1 6 46 12 39
53 -10 53 -18 0 -39 -7 -46 -16z m71 -74 c0 -5 -9 -10 -21 -10 -11 0 -17 5
-14 10 3 6 13 10 21 10 8 0 14 -4 14 -10z"/>
<path d="M575 5940 c-3 -5 -3 -10 2 -10 4 0 49 -7 98 -15 121 -20 140 -17 34
5 -48 10 -96 21 -107 24 -11 4 -23 2 -27 -4z"/>
<path d="M9332 5940 c-12 -5 -52 -15 -88 -21 -36 -6 -63 -13 -60 -16 2 -3 38
0 78 7 114 18 128 21 128 31 0 11 -28 11 -58 -1z"/>
<path d="M456 5893 c-4 -9 -2 -21 4 -27 7 -7 10 -5 10 7 0 23 13 21 35 -3 20
-23 35 -18 35 12 0 14 -5 18 -15 15 -8 -4 -17 -2 -20 3 -10 16 -42 11 -49 -7z"/>
<path d="M565 5860 c3 -5 18 -10 33 -10 21 0 24 2 12 10 -20 13 -53 13 -45 0z"/>
<path d="M9350 5860 c-11 -7 -7 -10 18 -10 17 0 32 5 32 10 0 13 -30 13 -50 0z"/>
<path d="M555 5780 c3 -5 17 -10 31 -10 14 0 22 4 19 10 -3 6 -17 10 -31 10
-14 0 -22 -4 -19 -10z"/>
<path d="M9355 5780 c-3 -6 5 -10 19 -10 14 0 28 5 31 10 3 6 -5 10 -19 10
-14 0 -28 -4 -31 -10z"/>
<path d="M555 5700 c28 -12 45 -12 45 0 0 6 -15 10 -32 9 -28 0 -30 -2 -13 -9z"/>
<path d="M9360 5700 c0 -12 17 -12 45 0 17 7 15 9 -12 9 -18 1 -33 -3 -33 -9z"/>
<path d="M535 5630 c-4 -6 7 -10 27 -9 27 0 30 2 13 9 -27 12 -33 12 -40 0z"/>
<path d="M9375 5630 c-4 -6 7 -10 24 -10 17 0 31 5 31 10 0 6 -11 10 -24 10
-14 0 -28 -4 -31 -10z"/>
<path d="M530 5550 c0 -5 21 -10 48 -9 38 1 42 2 22 9 -36 12 -70 12 -70 0z"/>
<path d="M9360 5550 c-20 -6 -14 -8 28 -9 28 -1 52 3 52 9 0 12 -44 12 -80 0z"/>
<path d="M520 5470 c0 -5 14 -10 31 -10 17 0 28 4 24 10 -3 6 -17 10 -31 10
-13 0 -24 -4 -24 -10z"/>
<path d="M9390 5470 c0 -5 11 -10 24 -10 14 0 28 5 31 10 4 6 -7 10 -24 10
-17 0 -31 -4 -31 -10z"/>
<path d="M520 5396 c0 -10 9 -16 25 -16 14 0 25 5 25 10 0 6 -4 10 -9 10 -5 0
-16 3 -25 6 -11 4 -16 1 -16 -10z"/>
<path d="M9397 5404 c-4 -4 -7 -11 -7 -16 0 -13 50 -6 53 7 2 12 -36 19 -46 9z"/>
<path d="M0 5342 c0 -27 3 -29 100 -51 55 -12 100 -25 100 -30 0 -4 -45 -17
-100 -30 l-100 -22 0 -44 c0 -49 -9 -44 143 -81 37 -9 66 -18 65 -20 -2 -1
-47 -14 -101 -27 -54 -14 -101 -28 -104 -30 -2 -3 -3 -16 -1 -30 l3 -25 145
37 145 36 0 35 0 35 -129 32 c-71 18 -130 34 -132 36 -2 1 57 18 131 36 l135
33 0 34 c0 28 -4 35 -27 40 -16 4 -78 20 -140 35 -62 16 -117 29 -122 29 -6 0
-11 -13 -11 -28z"/>
<path d="M515 5320 c-4 -6 7 -10 25 -10 18 0 29 4 25 10 -3 6 -15 10 -25 10
-10 0 -22 -4 -25 -10z"/>
<path d="M9400 5316 c0 -9 8 -12 25 -8 14 2 25 8 25 13 0 5 -11 9 -25 9 -14 0
-25 -6 -25 -14z"/>
<path d="M9667 5264 c-4 -4 -7 -56 -7 -116 l0 -108 25 0 c25 0 25 1 25 85 l0
86 58 -3 57 -3 3 -78 c3 -74 4 -78 25 -75 20 3 22 9 25 81 l3 77 44 0 45 0 0
-86 c0 -83 1 -85 23 -82 21 3 22 7 22 113 l0 110 -171 3 c-93 1 -173 -1 -177
-4z"/>
<path d="M412 5251 c-8 -5 -12 -17 -10 -27 2 -14 12 -19 38 -19 26 0 36 5 38
19 4 20 -13 36 -38 36 -8 0 -21 -4 -28 -9z m43 -21 c3 -5 -3 -10 -14 -10 -12
0 -21 5 -21 10 0 6 6 10 14 10 8 0 18 -4 21 -10z"/>
<path d="M510 5240 c0 -5 14 -10 30 -10 17 0 30 5 30 10 0 6 -13 10 -30 10
-16 0 -30 -4 -30 -10z"/>
<path d="M9400 5240 c0 -5 11 -10 25 -10 14 0 25 5 25 10 0 6 -11 10 -25 10
-14 0 -25 -4 -25 -10z"/>
<path d="M9515 5220 c-3 -5 -12 -7 -20 -3 -17 6 -22 -32 -5 -42 6 -4 5 -13 -2
-24 -18 -30 -3 -51 37 -51 39 0 55 21 38 49 -7 11 -7 21 0 33 8 12 7 21 -2 32
-15 18 -37 21 -46 6z m25 -90 c0 -5 -7 -10 -15 -10 -8 0 -15 5 -15 10 0 6 7
10 15 10 8 0 15 -4 15 -10z"/>
<path d="M400 5165 c0 -14 5 -25 10 -25 6 0 10 4 10 10 0 5 13 7 30 4 38 -8
38 1 0 21 -40 21 -50 19 -50 -10z"/>
<path d="M9375 5171 l-30 -7 34 -7 c52 -11 83 -9 79 6 -5 14 -41 18 -83 8z"/>
<path d="M510 5160 c0 -5 13 -10 29 -10 17 0 33 5 36 10 4 6 -8 10 -29 10 -20
0 -36 -4 -36 -10z"/>
<path d="M400 5095 c0 -14 5 -25 10 -25 6 0 10 7 10 15 0 8 4 15 9 15 5 0 14
-7 21 -15 19 -22 30 -18 30 11 0 22 -3 24 -14 15 -10 -8 -16 -9 -21 -1 -3 5
-15 10 -26 10 -14 0 -19 -7 -19 -25z"/>
<path d="M515 5090 c-4 -6 7 -10 25 -10 18 0 29 4 25 10 -3 6 -15 10 -25 10
-10 0 -22 -4 -25 -10z"/>
<path d="M9400 5090 c0 -5 11 -10 25 -10 14 0 25 5 25 10 0 6 -11 10 -25 10
-14 0 -25 -4 -25 -10z"/>
<path d="M515 5010 c-4 -6 7 -10 24 -10 17 0 31 5 31 10 0 6 -11 10 -24 10
-14 0 -28 -4 -31 -10z"/>
<path d="M9400 5010 c0 -5 11 -10 25 -10 14 0 25 5 25 10 0 6 -11 10 -25 10
-14 0 -25 -4 -25 -10z"/>
<path d="M520 4930 c0 -5 11 -10 25 -10 14 0 25 5 25 10 0 6 -11 10 -25 10
-14 0 -25 -4 -25 -10z"/>
<path d="M9390 4930 c0 -5 14 -10 30 -10 17 0 30 5 30 10 0 6 -13 10 -30 10
-16 0 -30 -4 -30 -10z"/>
<path d="M536 4861 c-14 -5 -16 -10 -8 -15 16 -9 54 3 47 15 -7 10 -13 10 -39
0z"/>
<path d="M9390 4855 c0 -9 9 -15 24 -15 33 0 42 16 13 24 -33 9 -37 8 -37 -9z"/>
<path d="M530 4774 c0 -11 5 -14 16 -10 9 3 22 6 30 6 8 0 14 5 14 10 0 6 -13
10 -30 10 -21 0 -30 -5 -30 -16z"/>
<path d="M9379 4775 c45 -14 66 -12 56 6 -4 5 -27 9 -53 8 l-47 0 44 -14z"/>
<path d="M535 4700 c-4 -6 7 -10 24 -10 17 0 31 5 31 10 0 6 -11 10 -24 10
-14 0 -28 -4 -31 -10z"/>
<path d="M9370 4700 c0 -5 14 -10 30 -10 17 0 30 5 30 10 0 6 -13 10 -30 10
-16 0 -30 -4 -30 -10z"/>
<path d="M540 4620 c0 -5 11 -10 24 -10 14 0 28 5 31 10 4 6 -7 10 -24 10 -17
0 -31 -4 -31 -10z"/>
<path d="M9365 4620 c3 -5 17 -10 31 -10 13 0 24 5 24 10 0 6 -14 10 -31 10
-17 0 -28 -4 -24 -10z"/>
<path d="M567 4553 c-9 -2 -15 -8 -12 -12 6 -11 55 -1 55 10 0 9 -13 10 -43 2z"/>
<path d="M9350 4552 c0 -11 49 -26 58 -17 8 7 0 12 -31 20 -16 4 -27 3 -27 -3z"/>
<path d="M570 4470 c-11 -7 -7 -10 18 -10 17 0 32 5 32 10 0 13 -30 13 -50 0z"/>
<path d="M9345 4470 c3 -5 17 -10 31 -10 14 0 22 4 19 10 -3 6 -17 10 -31 10
-14 0 -22 -4 -19 -10z"/>
<path d="M472 4461 c-21 -13 -10 -46 16 -49 19 -3 21 -6 11 -18 -6 -7 -15 -11
-20 -8 -5 3 -9 -4 -9 -14 0 -23 27 -32 58 -21 26 10 30 44 6 53 -13 5 -14 9
-4 21 27 32 -20 61 -58 36z m48 -21 c0 -5 -9 -10 -20 -10 -11 0 -20 5 -20 10
0 6 9 10 20 10 11 0 20 -4 20 -10z m10 -60 c0 -5 -5 -10 -11 -10 -5 0 -7 5 -4
10 3 6 8 10 11 10 2 0 4 -4 4 -10z"/>
<path d="M9427 4463 c-4 -3 -7 -14 -7 -23 0 -13 9 -16 43 -16 30 1 42 5 42 16
0 10 -8 14 -23 12 -13 -2 -29 1 -36 7 -7 6 -16 8 -19 4z"/>
<path d="M735 4420 c-27 -7 -28 -8 -5 -8 14 0 34 3 45 8 25 11 2 11 -40 0z"/>
<path d="M9190 4421 c8 -6 23 -11 34 -11 10 0 49 -7 87 -17 38 -9 72 -13 76
-10 11 12 0 15 -87 27 -47 6 -94 13 -105 16 -16 4 -17 3 -5 -5z"/>
<path d="M610 4403 c-32 -6 -51 -23 -24 -23 10 1 42 7 69 15 46 12 47 14 15
13 -19 0 -46 -3 -60 -5z"/>
<path d="M9424 4395 c-30 -21 -10 -47 33 -43 30 2 38 7 38 22 0 25 -47 39 -71
21z m48 -27 c-10 -10 -44 0 -37 12 3 5 14 6 26 3 12 -3 17 -9 11 -15z"/>
<path d="M540 4330 c0 -5 -13 -7 -30 -3 -27 5 -30 3 -30 -21 0 -14 5 -26 10
-26 6 0 10 7 10 16 0 10 5 14 15 10 8 -3 22 -9 30 -12 11 -5 15 1 15 20 0 14
-4 26 -10 26 -5 0 -10 -4 -10 -10z"/>
<path d="M9404 4325 c-9 -23 15 -45 48 -45 32 0 47 23 28 45 -16 20 -69 19
-76 0z m61 -15 c3 -5 -3 -10 -14 -10 -11 0 -23 5 -26 10 -3 6 3 10 14 10 11 0
23 -4 26 -10z"/>
<path d="M608 4323 c-10 -2 -18 -9 -18 -15 0 -5 7 -7 16 -4 9 3 22 6 30 6 8 0
14 5 14 10 0 10 -12 11 -42 3z"/>
<path d="M9320 4321 c0 -11 39 -26 47 -17 8 8 3 12 -24 20 -13 4 -23 3 -23 -3z"/>
<path d="M615 4240 c-3 -6 5 -10 19 -10 14 0 28 5 31 10 3 6 -5 10 -19 10 -14
0 -28 -4 -31 -10z"/>
<path d="M9300 4240 c0 -5 14 -10 31 -10 17 0 28 4 24 10 -3 6 -17 10 -31 10
-13 0 -24 -4 -24 -10z"/>
<path d="M648 4173 c-19 -5 -25 -23 -9 -23 17 0 41 12 41 21 0 9 -4 10 -32 2z"/>
<path d="M9285 4171 c-6 -11 42 -27 52 -17 8 8 3 12 -24 20 -12 4 -24 2 -28
-3z"/>
<path d="M645 4090 c-3 -6 5 -10 19 -10 14 0 28 5 31 10 3 6 -5 10 -19 10 -14
0 -28 -4 -31 -10z"/>
<path d="M9264 4091 c8 -12 55 -20 61 -11 3 4 -2 11 -11 14 -24 9 -56 7 -50
-3z"/>
<path d="M678 4023 c-21 -5 -24 -23 -4 -23 7 0 29 7 47 15 l34 14 -30 -1 c-16
0 -38 -2 -47 -5z"/>
<path d="M9240 4014 c19 -8 43 -13 55 -11 18 3 17 5 -8 15 -16 7 -40 12 -55
12 -26 -1 -26 -1 8 -16z"/>
<path d="M685 3941 c-3 -5 -2 -12 2 -14 9 -5 53 10 53 18 0 9 -49 5 -55 -4z"/>
<path d="M9225 3942 c6 -5 21 -13 34 -17 17 -5 22 -4 19 6 -3 8 -18 15 -34 17
-19 2 -25 0 -19 -6z"/>
<path d="M714 3864 c-18 -15 -18 -15 6 -10 14 3 28 6 33 6 4 0 7 5 7 10 0 15
-24 12 -46 -6z"/>
<path d="M9214 3865 c22 -17 46 -20 46 -6 0 10 -25 21 -48 21 -15 -1 -14 -3 2
-15z"/>
<path d="M9186 3803 c-11 -11 6 -23 30 -23 14 0 23 4 20 9 -7 11 -43 21 -50
14z"/>
<path d="M737 3793 c-4 -3 -7 -10 -7 -14 0 -9 39 1 46 12 6 10 -29 12 -39 2z"/>
<path d="M763 3723 c-23 -9 -14 -25 10 -18 31 10 45 25 22 24 -11 0 -26 -3
-32 -6z"/>
<path d="M9160 3721 c0 -9 41 -23 48 -16 2 2 1 8 -3 14 -8 13 -45 15 -45 2z"/>
<path d="M925 3690 c-22 -11 -29 -17 -15 -14 29 8 80 33 65 33 -5 0 -28 -8
-50 -19z"/>
<path d="M8980 3708 c12 -12 192 -79 203 -75 13 5 -7 14 -108 47 -38 13 -77
25 -85 28 -8 3 -13 3 -10 0z"/>
<path d="M660 3685 c-17 -21 -5 -45 23 -45 29 0 52 24 43 45 -7 19 -50 19 -66
0z m45 -15 c-3 -5 -13 -10 -21 -10 -8 0 -12 5 -9 10 3 6 13 10 21 10 8 0 12
-4 9 -10z"/>
<path d="M9233 3685 c-7 -21 -4 -23 41 -27 25 -2 41 2 43 10 3 8 -6 12 -26 12
-17 0 -31 5 -31 10 0 16 -20 12 -27 -5z"/>
<path d="M793 3653 c-7 -2 -13 -9 -13 -15 0 -12 50 -2 65 13 10 10 -30 12 -52
2z"/>
<path d="M693 3626 c-25 -12 -29 -26 -12 -43 16 -16 39 -5 39 18 0 23 16 25
24 3 9 -24 19 -10 11 15 -7 23 -27 25 -62 7z"/>
<path d="M9210 3621 c0 -13 10 -20 31 -25 44 -9 49 -8 49 8 0 8 -11 14 -27 14
-15 0 -29 5 -31 11 -6 18 -22 13 -22 -8z"/>
<path d="M828 3583 c-10 -2 -18 -11 -18 -19 0 -11 5 -11 25 -2 14 6 25 15 25
20 0 8 -4 9 -32 1z"/>
<path d="M9105 3581 c-3 -5 9 -14 26 -20 22 -8 29 -7 27 1 -5 15 -46 29 -53
19z"/>
<path d="M750 3572 c0 -6 -8 -8 -18 -5 -23 6 -44 -19 -36 -41 9 -23 24 -20 24
4 0 17 3 19 19 10 30 -16 43 -12 39 12 -3 21 -28 39 -28 20z"/>
<path d="M9191 3566 c-10 -12 -8 -19 8 -35 22 -22 30 -24 55 -15 19 7 21 35 4
52 -16 16 -53 15 -67 -2z m54 -16 c3 -5 -3 -10 -14 -10 -12 0 -21 5 -21 10 0
6 6 10 14 10 8 0 18 -4 21 -10z"/>
<path d="M9075 3511 c-2 -5 7 -13 22 -20 27 -12 39 -9 29 7 -8 13 -45 22 -51
13z"/>
<path d="M841 3501 c-7 -5 -9 -11 -5 -14 10 -5 54 9 54 18 0 8 -34 6 -49 -4z"/>
<path d="M9050 3435 c0 -8 4 -15 9 -15 5 0 16 -3 25 -6 26 -10 18 12 -9 24
-21 10 -25 9 -25 -3z"/>
<path d="M870 3425 c-17 -20 9 -21 36 0 19 14 19 14 -2 15 -12 0 -27 -7 -34
-15z"/>
<path d="M9015 3370 c-6 -9 25 -30 44 -30 20 0 11 17 -14 28 -14 7 -27 7 -30
2z"/>
<path d="M907 3363 c-10 -9 -9 -23 1 -23 5 0 17 7 28 15 19 14 19 14 -2 15
-11 0 -24 -3 -27 -7z"/>
<path d="M945 3293 c-16 -9 -25 -18 -19 -20 16 -5 64 15 64 27 0 14 -10 12
-45 -7z"/>
<path d="M8985 3290 c31 -21 55 -26 55 -12 0 11 -45 32 -68 32 -12 0 -8 -6 13
-20z"/>
<path d="M8950 3229 c0 -10 40 -32 47 -25 3 2 2 9 -1 14 -8 13 -46 22 -46 11z"/>
<path d="M970 3220 c-8 -5 -12 -12 -8 -15 9 -9 48 4 48 16 0 12 -21 11 -40 -1z"/>
<path d="M8920 3156 c0 -13 20 -26 41 -26 18 0 8 17 -16 28 -20 9 -25 9 -25
-2z"/>
<path d="M1007 3153 c-10 -9 -9 -23 1 -23 5 0 17 7 28 15 19 14 19 14 -2 15
-11 0 -24 -3 -27 -7z"/>
<path d="M1053 3087 c-25 -11 -31 -27 -9 -27 14 0 42 28 35 34 -2 2 -14 -1
-26 -7z"/>
<path d="M8880 3090 c0 -12 40 -33 48 -25 4 4 -2 13 -12 21 -23 16 -36 18 -36
4z"/>
<path d="M1084 3016 c-10 -8 -16 -17 -12 -21 8 -8 48 13 48 25 0 14 -13 12
-36 -4z"/>
<path d="M8840 3020 c0 -11 33 -30 52 -30 7 1 3 9 -11 20 -25 22 -41 26 -41
10z"/>
<path d="M8720 3006 c0 -3 17 -15 38 -27 20 -13 39 -26 42 -29 6 -8 46 -30 54
-30 3 0 6 4 6 10 0 5 -31 25 -70 44 -38 20 -70 34 -70 32z"/>
<path d="M1003 2977 c-47 -21 -33 -74 16 -62 24 5 24 4 9 -8 -28 -22 -21 -37
16 -37 32 0 35 2 34 30 -1 19 -6 30 -15 30 -10 0 -12 6 -8 19 8 26 -22 42 -52
28z m27 -27 c0 -5 -7 -10 -16 -10 -8 0 -12 5 -9 10 3 6 10 10 16 10 5 0 9 -4
9 -10z"/>
<path d="M1158 2967 c-27 -11 -48 -27 -48 -34 0 -19 7 -17 56 19 36 26 54 42
42 37 -2 -1 -24 -10 -50 -22z"/>
<path d="M8910 2971 c-7 -13 -7 -22 0 -26 5 -3 10 -4 10 0 0 3 13 -1 29 -9 16
-9 31 -12 35 -9 10 10 7 35 -3 29 -14 -9 -41 4 -41 20 0 20 -18 17 -30 -5z"/>
<path d="M8882 2918 c-16 -16 -15 -31 2 -25 8 3 16 -2 19 -14 6 -23 45 -26 54
-4 3 9 2 19 -2 23 -4 4 -10 1 -12 -5 -7 -21 -20 -15 -27 12 -7 28 -16 31 -34
13z"/>
<path d="M8770 2886 c0 -13 20 -26 41 -26 14 0 1 18 -22 30 -15 8 -19 7 -19
-4z"/>
<path d="M1163 2883 c-7 -2 -13 -9 -13 -14 0 -14 26 -10 40 6 10 12 10 15 -1
14 -8 0 -20 -3 -26 -6z"/>
<path d="M1095 2861 c3 -5 -7 -11 -22 -13 -20 -2 -28 -9 -28 -22 0 -11 6 -21
14 -24 10 -3 12 0 7 13 -5 15 -2 17 23 12 34 -7 49 7 31 28 -14 16 -35 21 -25
6z"/>
<path d="M8843 2855 c-8 -21 26 -57 51 -53 24 4 33 33 16 53 -16 20 -59 19
-67 0z m52 -16 c12 -19 -5 -23 -22 -6 -16 16 -16 17 -1 17 9 0 20 -5 23 -11z"/>
<path d="M1204 2816 c-10 -8 -16 -17 -12 -21 8 -8 48 13 48 25 0 14 -13 12
-36 -4z"/>
<path d="M8735 2810 c17 -19 45 -27 45 -14 0 11 -34 33 -49 34 -11 0 -10 -5 4
-20z"/>
<path d="M1240 2745 c-7 -9 -10 -18 -7 -21 6 -7 47 18 47 28 0 14 -27 9 -40
-7z"/>
<path d="M8700 2739 c17 -14 26 -17 28 -9 5 14 -16 30 -38 30 -10 -1 -7 -7 10
-21z"/>
<path d="M1286 2685 c-23 -17 -13 -34 11 -19 19 12 29 34 16 34 -4 0 -17 -7
-27 -15z"/>
<path d="M8640 2690 c0 -12 40 -33 48 -25 4 4 -2 13 -12 21 -23 16 -36 18 -36
4z"/>
<path d="M8594 2626 c40 -37 61 -46 54 -23 -3 6 -24 23 -49 36 l-44 23 39 -36z"/>
<path d="M1336 2625 c-27 -20 -16 -39 12 -20 21 16 30 35 15 35 -5 0 -16 -7
-27 -15z"/>
<path d="M1374 2556 c-10 -8 -16 -17 -12 -21 7 -7 48 16 48 27 0 12 -14 9 -36
-6z"/>
<path d="M8569 2549 c13 -11 26 -17 29 -14 8 8 -20 35 -37 35 -12 -1 -11 -5 8
-21z"/>
<path d="M1420 2495 c-21 -25 -1 -31 23 -7 17 18 18 22 5 22 -8 0 -21 -7 -28
-15z"/>
<path d="M8510 2502 c0 -13 23 -32 39 -32 11 0 10 4 -4 20 -19 21 -35 26 -35
12z"/>
<path d="M1465 2430 c-14 -16 -15 -20 -4 -20 16 0 39 19 39 32 0 14 -16 9 -35
-12z"/>
<path d="M8460 2440 c0 -9 32 -30 46 -30 4 0 -1 9 -11 20 -19 21 -35 26 -35
10z"/>
<path d="M1643 2372 c-92 -73 -102 -82 -82 -82 7 1 48 32 89 70 41 39 73 70
70 69 -3 0 -37 -26 -77 -57z"/>
<path d="M8305 2368 c76 -71 94 -83 103 -73 4 4 -2 12 -12 19 -11 6 -48 35
-82 64 -87 71 -92 66 -9 -10z"/>
<path d="M1515 2370 c-14 -16 -15 -20 -4 -20 16 0 39 19 39 32 0 14 -16 9 -35
-12z"/>
<path d="M8410 2380 c0 -12 40 -34 48 -26 3 4 -3 13 -14 21 -22 17 -34 19 -34
5z"/>
<path d="M1435 2310 c-21 -23 -14 -50 13 -50 25 0 56 35 49 55 -9 21 -40 19
-62 -5z m32 -17 c-9 -9 -20 -13 -24 -9 -4 4 -1 11 7 16 25 16 35 11 17 -7z"/>
<path d="M8470 2320 c0 -5 -12 -20 -26 -34 -31 -28 -27 -50 11 -68 21 -9 29
-9 41 4 11 11 12 18 5 22 -6 4 -11 2 -11 -3 0 -6 -5 -11 -11 -11 -5 0 -8 4 -4
9 3 5 -4 11 -14 13 -20 3 -20 3 -1 28 l19 25 24 -23 c21 -20 25 -21 37 -7 10
12 10 15 -4 15 -9 0 -21 9 -28 20 -13 21 -38 27 -38 10z"/>
<path d="M1955 2148 c-82 -83 -143 -149 -135 -147 17 5 308 299 294 298 -5 0
-76 -68 -159 -151z"/>
<path d="M7850 2296 c0 -10 283 -296 293 -296 5 0 7 3 5 8 -6 13 -298 295
-298 288z"/>
<path d="M1476 2258 c-13 -14 -16 -26 -10 -35 10 -16 31 -17 27 -2 -2 5 1 9 6
9 5 0 11 7 13 16 2 13 7 11 28 -8 25 -23 25 -23 3 -26 -32 -5 -49 -28 -33 -47
18 -21 32 -19 25 5 -5 17 -2 20 24 20 17 0 31 3 31 6 0 15 -65 84 -79 83 -9 0
-25 -10 -35 -21z"/>
<path d="M1615 2250 c-14 -16 -15 -20 -4 -20 16 0 39 19 39 32 0 14 -16 9 -35
-12z"/>
<path d="M8325 2250 c10 -11 23 -20 28 -20 6 0 2 9 -8 20 -10 11 -23 20 -28
20 -6 0 -2 -9 8 -20z"/>
<path d="M8383 2213 c-9 -24 44 -68 63 -52 19 16 18 33 -4 52 -24 22 -51 22
-59 0z m47 -13 c8 -5 11 -12 8 -16 -10 -9 -38 3 -38 16 0 12 10 13 30 0z"/>
<path d="M1665 2190 c-14 -16 -15 -20 -4 -20 16 0 39 19 39 32 0 14 -16 9 -35
-12z"/>
<path d="M8275 2190 c10 -11 23 -20 28 -20 6 0 2 9 -8 20 -10 11 -23 20 -28
20 -6 0 -2 -9 8 -20z"/>
<path d="M1725 2140 c-24 -27 -16 -33 14 -11 13 10 19 21 14 24 -6 4 -18 -2
-28 -13z"/>
<path d="M8210 2152 c0 -10 33 -42 43 -42 14 0 5 16 -18 33 -14 10 -25 14 -25
9z"/>
<path d="M1775 2080 c-14 -16 -15 -20 -4 -20 16 0 39 19 39 32 0 14 -16 9 -35
-12z"/>
<path d="M8168 2078 c12 -12 24 -19 28 -15 10 10 -16 37 -34 37 -13 0 -12 -4
6 -22z"/>
<path d="M1885 1970 c-10 -11 -15 -23 -12 -27 8 -7 47 25 47 39 0 14 -16 9
-35 -12z"/>
<path d="M8060 1965 c13 -14 26 -23 28 -20 7 7 -29 45 -41 45 -6 0 0 -11 13
-25z"/>
<path d="M1945 1920 c-10 -11 -16 -22 -13 -25 3 -3 13 4 23 15 10 11 16 22 13
25 -3 3 -13 -4 -23 -15z"/>
<path d="M7990 1932 c0 -12 39 -46 45 -40 6 5 -29 48 -39 48 -3 0 -6 -4 -6 -8z"/>
<path d="M2207 1868 c-13 -18 -43 -53 -66 -77 -22 -24 -38 -48 -34 -54 4 -6
13 -1 22 13 9 14 40 53 69 87 29 35 49 63 44 63 -5 0 -21 -15 -35 -32z"/>
<path d="M7720 1896 c0 -2 8 -10 18 -17 15 -13 16 -12 3 4 -13 16 -21 21 -21
13z"/>
<path d="M2000 1865 c-13 -14 -19 -25 -13 -25 12 0 48 38 41 45 -2 3 -15 -6
-28 -20z"/>
<path d="M7930 1882 c0 -14 39 -46 47 -39 3 4 -2 16 -12 27 -19 21 -35 26 -35
12z"/>
<path d="M7794 1804 c44 -62 66 -83 66 -62 0 7 -23 36 -51 63 l-51 50 36 -51z"/>
<path d="M2060 1815 c-16 -17 -19 -25 -9 -25 14 0 44 38 36 46 -2 2 -14 -7
-27 -21z"/>
<path d="M7876 1832 c-7 -11 31 -48 41 -38 4 3 -2 16 -14 27 -11 12 -23 17
-27 11z"/>
<path d="M1994 1747 c-18 -16 -25 -29 -21 -40 8 -22 40 -22 60 1 21 23 21 36
3 51 -11 9 -20 7 -42 -12z m30 -22 c-4 -8 -13 -15 -21 -15 -13 0 -13 3 -3 15
7 8 16 15 21 15 5 0 6 -7 3 -15z"/>
<path d="M7922 1758 c-16 -16 -15 -28 2 -28 8 0 22 -9 30 -21 8 -12 19 -18 25
-14 16 9 13 25 -4 25 -8 0 -17 11 -21 25 -7 28 -14 31 -32 13z"/>
<path d="M2176 1715 c-19 -29 -7 -33 18 -6 10 11 13 22 8 25 -6 3 -17 -5 -26
-19z"/>
<path d="M7760 1728 c0 -18 27 -44 37 -34 4 4 -3 16 -15 29 -18 17 -22 18 -22
5z"/>
<path d="M2063 1716 c3 -8 -2 -16 -14 -19 -23 -6 -23 -47 0 -55 9 -3 11 2 6
17 -5 17 -2 21 18 21 33 0 40 10 20 32 -19 21 -37 24 -30 4z"/>
<path d="M7882 1713 c-15 -3 -22 -10 -18 -19 4 -10 -2 -14 -18 -14 -13 0 -27
-7 -30 -15 -12 -31 37 -77 64 -60 14 8 13 38 -2 53 -18 18 3 14 24 -4 16 -16
18 -16 24 0 7 19 -3 67 -14 65 -4 -1 -17 -4 -30 -6z m-16 -90 c-4 -4 -11 -1
-16 7 -16 25 -11 35 7 17 9 -9 13 -20 9 -24z"/>
<path d="M2115 1680 c-3 -5 -3 -10 2 -11 4 0 -2 -4 -14 -9 -13 -5 -23 -18 -23
-28 0 -24 25 -48 35 -32 3 5 -1 13 -9 16 -22 9 -9 24 20 24 27 0 32 21 10 39
-10 8 -16 9 -21 1z"/>
<path d="M2240 1671 c-16 -30 -12 -36 10 -16 21 19 26 35 10 35 -5 0 -14 -9
-20 -19z"/>
<path d="M4985 1310 c0 -212 1 -298 2 -193 2 106 2 280 0 385 -1 106 -2 20 -2
-192z"/>
<path d="M7700 1678 c0 -18 27 -44 37 -34 4 4 -3 16 -15 29 -18 17 -22 18 -22
5z"/>
<path d="M2302 1620 c-18 -29 -15 -36 8 -15 20 18 26 35 12 35 -4 0 -13 -9
-20 -20z"/>
<path d="M7640 1621 c12 -23 29 -35 37 -27 7 7 -26 46 -39 46 -5 0 -4 -9 2
-19z"/>
<path d="M2366 1581 c-10 -11 -16 -26 -14 -33 3 -8 11 -2 23 15 21 33 15 45
-9 18z"/>
<path d="M7576 1578 c15 -27 27 -38 35 -32 12 7 -13 44 -29 44 -8 0 -10 -5 -6
-12z"/>
<path d="M2438 1545 c-30 -35 -34 -45 -19 -45 10 0 56 69 50 74 -2 2 -16 -12
-31 -29z"/>
<path d="M7509 1543 c12 -24 26 -43 31 -43 20 0 9 27 -21 56 l-31 29 21 -42z"/>
<path d="M2490 1491 c-17 -33 -11 -47 10 -21 11 14 20 28 20 33 0 14 -20 7
-30 -12z"/>
<path d="M7450 1500 c0 -22 16 -43 30 -38 8 2 5 11 -9 28 -14 17 -20 20 -21
10z"/>
<path d="M2550 1439 c-7 -11 -9 -24 -5 -27 7 -7 35 25 35 40 0 16 -19 8 -30
-13z"/>
<path d="M7390 1441 c5 -11 15 -23 20 -26 14 -9 12 19 -2 33 -19 19 -30 14
-18 -7z"/>
<path d="M7166 1370 c45 -89 40 -83 54 -78 6 2 -10 34 -35 73 -61 92 -63 93
-19 5z"/>
<path d="M2781 1366 c-43 -67 -47 -76 -32 -76 5 0 25 32 45 70 19 39 34 70 32
70 -2 0 -22 -29 -45 -64z"/>
<path d="M2622 1408 c-14 -14 -16 -38 -4 -38 5 0 14 11 20 25 12 26 4 33 -16
13z"/>
<path d="M7320 1406 c0 -16 28 -42 36 -33 7 6 -18 47 -28 47 -5 0 -8 -6 -8
-14z"/>
<path d="M2686 1364 c-11 -27 -7 -37 9 -24 16 14 20 40 6 40 -5 0 -12 -7 -15
-16z"/>
<path d="M7250 1372 c0 -15 28 -47 35 -40 8 8 -13 48 -25 48 -6 0 -10 -4 -10
-8z"/>
<path d="M2636 1291 c-21 -23 -18 -65 6 -69 24 -5 55 45 42 66 -15 24 -29 25
-48 3z m34 -20 c0 -5 -7 -14 -15 -21 -12 -10 -15 -10 -15 2 0 8 3 18 7 21 9
10 23 9 23 -2z"/>
<path d="M7282 1298 c-15 -18 33 -72 55 -64 14 6 14 9 -5 22 -12 8 -22 24 -22
35 0 22 -13 25 -28 7z"/>
<path d="M2822 1288 c-14 -14 -16 -38 -4 -38 5 0 14 11 20 25 12 26 4 33 -16
13z"/>
<path d="M7120 1292 c0 -12 28 -48 33 -42 8 8 -11 50 -23 50 -5 0 -10 -4 -10
-8z"/>
<path d="M2705 1270 c-3 -5 -4 -10 0 -10 3 0 -1 -13 -9 -29 -9 -16 -12 -31 -9
-35 10 -10 35 -7 29 3 -9 14 4 41 20 41 20 0 17 18 -5 30 -13 7 -22 7 -26 0z"/>
<path d="M7232 1268 c-7 -7 -12 -17 -12 -23 0 -6 -12 -11 -27 -10 -36 0 -43
-35 -14 -64 28 -28 54 -17 49 20 -5 32 6 38 20 12 12 -21 45 -10 40 14 -2 9
-14 20 -28 23 -17 4 -21 8 -12 14 13 8 16 26 4 26 -4 0 -13 -5 -20 -12z m-26
-85 c-4 -4 -11 -1 -16 7 -16 25 -11 35 7 17 9 -9 13 -20 9 -24z"/>
<path d="M2892 1253 c-18 -32 -16 -51 4 -31 9 8 14 24 12 34 -4 18 -5 17 -16
-3z"/>
<path d="M7050 1259 c0 -6 5 -19 11 -30 15 -28 31 -13 17 16 -11 25 -28 34
-28 14z"/>
<path d="M2764 1232 c3 -5 -4 -16 -15 -25 -23 -20 -24 -30 -4 -47 12 -10 19
-10 27 -2 9 9 9 12 0 12 -22 0 -12 20 14 30 22 9 24 13 14 25 -13 15 -45 21
-36 7z"/>
<path d="M2955 1209 c-4 -11 -4 -23 0 -27 7 -7 25 17 25 36 0 20 -18 14 -25
-9z"/>
<path d="M6980 1222 c0 -15 28 -47 35 -40 8 8 -13 48 -25 48 -6 0 -10 -4 -10
-8z"/>
<path d="M3031 1187 c-7 -9 -11 -24 -9 -34 3 -16 5 -15 17 5 15 29 10 50 -8
29z"/>
<path d="M6910 1195 c0 -12 24 -55 32 -55 11 0 10 4 -4 35 -9 21 -28 35 -28
20z"/>
<path d="M6840 1162 c0 -22 26 -59 35 -50 6 6 -21 68 -30 68 -3 0 -5 -8 -5
-18z"/>
<path d="M3095 1141 c-14 -27 -14 -31 0 -31 8 0 17 11 21 25 9 38 -2 41 -21 6z"/>
<path d="M3515 1149 c-4 -6 -5 -12 -2 -15 2 -3 7 2 10 11 7 17 1 20 -8 4z"/>
<path d="M6440 1157 c-1 -20 63 -197 71 -197 5 0 9 2 9 4 0 9 -79 200 -80 193z"/>
<path d="M3165 1109 c-4 -11 -4 -23 0 -27 7 -7 25 17 25 36 0 20 -18 14 -25
-9z"/>
<path d="M6770 1122 c0 -12 28 -48 33 -42 8 8 -11 50 -23 50 -5 0 -10 -4 -10
-8z"/>
<path d="M3235 1079 c-4 -11 -4 -23 0 -27 7 -7 25 17 25 36 0 20 -18 14 -25
-9z"/>
<path d="M6700 1095 c0 -15 24 -54 31 -49 10 6 -10 54 -23 54 -4 0 -8 -2 -8
-5z"/>
<path d="M3310 1061 c0 -5 -3 -17 -7 -27 -4 -11 -2 -15 7 -12 20 6 33 48 15
48 -8 0 -15 -4 -15 -9z"/>
<path d="M6635 1048 c10 -31 25 -47 25 -26 0 24 -11 48 -22 48 -5 0 -6 -10 -3
-22z"/>
<path d="M3462 1015 c-26 -54 -26 -55 -8 -55 9 0 18 18 24 47 6 26 10 49 8 50
-1 1 -12 -18 -24 -42z"/>
<path d="M3380 1019 c-12 -22 -8 -35 8 -25 13 8 22 46 11 46 -4 0 -13 -9 -19
-21z"/>
<path d="M6560 1028 c0 -19 18 -43 25 -36 9 9 -4 48 -16 48 -5 0 -9 -6 -9 -12z"/>
<path d="M3526 974 c-3 -9 -6 -23 -6 -32 1 -15 3 -14 15 2 17 22 20 46 6 46
-5 0 -12 -7 -15 -16z"/>
<path d="M6415 968 c10 -31 25 -47 25 -26 0 24 -11 48 -22 48 -5 0 -6 -10 -3
-22z"/>
<path d="M3600 944 c-6 -15 -8 -29 -6 -31 8 -8 23 6 29 27 8 31 -12 35 -23 4z"/>
<path d="M4235 958 c-5 -17 -26 -123 -32 -168 -3 -20 -2 -31 3 -27 5 5 16 53
25 108 14 90 15 120 4 87z"/>
<path d="M5727 920 c3 -30 9 -77 12 -104 4 -29 12 -51 20 -54 10 -3 12 2 8 19
-4 13 -16 62 -27 109 -16 69 -18 75 -13 30z"/>
<path d="M6344 950 c3 -14 6 -28 6 -32 0 -5 5 -8 10 -8 15 0 12 24 -6 46 -15
18 -15 18 -10 -6z"/>
<path d="M3340 941 c-15 -29 -12 -49 9 -61 14 -7 22 -7 27 1 5 8 12 5 23 -10
20 -27 49 -19 57 15 10 37 -2 57 -30 50 -16 -4 -26 -1 -30 9 -8 21 -43 19 -56
-4z m31 -28 c-8 -15 -10 -15 -11 -2 0 17 10 32 18 25 2 -3 -1 -13 -7 -23z m60
-26 c-8 -8 -11 -7 -11 4 0 20 13 34 18 19 3 -7 -1 -17 -7 -23z"/>
<path d="M6565 951 c-3 -5 0 -13 5 -16 6 -4 15 -18 20 -31 5 -13 16 -24 25
-24 17 0 20 17 4 22 -6 2 -12 16 -12 31 -2 27 -29 38 -42 18z"/>
<path d="M3677 933 c-11 -10 -8 -43 3 -43 6 0 10 4 10 9 0 5 3 16 6 25 6 16
-7 22 -19 9z"/>
<path d="M3831 904 c-7 -23 -11 -48 -8 -55 7 -20 29 40 25 70 -3 23 -5 21 -17
-15z"/>
<path d="M6270 921 c0 -11 5 -23 10 -26 6 -3 10 3 10 14 0 11 -4 23 -10 26 -5
3 -10 -3 -10 -14z"/>
<path d="M6503 921 c-4 -17 -8 -19 -19 -10 -11 9 -18 8 -29 -1 -20 -17 -19
-33 4 -61 16 -20 21 -21 35 -10 10 9 14 22 11 35 -6 19 -4 18 14 -4 19 -23 21
-24 37 -8 13 12 14 22 7 45 -12 36 -52 45 -60 14z m37 -11 c0 -5 -4 -10 -10
-10 -5 0 -10 5 -10 10 0 6 5 10 10 10 6 0 10 -4 10 -10z m-56 -36 c9 -22 -3
-32 -14 -14 -12 19 -12 30 -1 30 5 0 12 -7 15 -16z"/>
<path d="M3483 907 c3 -9 -1 -18 -9 -21 -24 -9 -13 -50 14 -54 12 -2 22 1 22
7 0 6 -8 11 -17 11 -14 1 -11 6 12 25 32 26 32 29 -4 40 -19 6 -23 4 -18 -8z"/>
<path d="M3747 898 c-7 -25 -3 -33 12 -23 13 8 15 45 2 45 -5 0 -11 -10 -14
-22z"/>
<path d="M4978 810 c-4 -63 -5 -117 -2 -119 15 -15 20 28 15 124 l-6 110 -7
-115z"/>
<path d="M6190 908 c0 -19 18 -43 25 -36 9 9 -4 48 -16 48 -5 0 -9 -6 -9 -12z"/>
<path d="M6122 880 c2 -19 8 -33 13 -30 12 6 8 41 -6 55 -7 7 -9 -1 -7 -25z"/>
<path d="M3897 858 c-7 -25 -3 -33 12 -23 13 8 15 45 2 45 -5 0 -11 -10 -14
-22z"/>
<path d="M6040 868 c0 -19 18 -43 25 -36 9 9 -4 48 -16 48 -5 0 -9 -6 -9 -12z"/>
<path d="M3977 853 c-11 -10 -8 -43 3 -43 6 0 10 4 10 9 0 5 3 16 6 25 6 16
-7 22 -19 9z"/>
<path d="M5970 835 c0 -14 5 -25 10 -25 6 0 10 11 10 25 0 14 -4 25 -10 25 -5
0 -10 -11 -10 -25z"/>
<path d="M4047 823 c-6 -32 -3 -38 12 -28 13 8 15 55 2 55 -5 0 -11 -12 -14
-27z"/>
<path d="M5895 823 c8 -32 13 -39 21 -30 10 9 -5 57 -17 57 -7 0 -9 -10 -4
-27z"/>
<path d="M4125 809 c-4 -11 -4 -23 0 -27 7 -7 25 17 25 36 0 20 -18 14 -25 -9z"/>
<path d="M5820 805 c0 -14 5 -25 10 -25 6 0 10 11 10 25 0 14 -4 25 -10 25 -5
0 -10 -11 -10 -25z"/>
<path d="M4280 786 c-12 -33 -12 -36 -1 -36 10 0 25 50 17 58 -3 2 -10 -7 -16
-22z"/>
<path d="M4592 763 c-11 -50 -7 -68 8 -43 10 15 14 90 6 90 -2 0 -9 -21 -14
-47z"/>
<path d="M5668 804 c-8 -7 3 -54 13 -54 12 0 12 47 0 54 -4 3 -10 3 -13 0z"/>
<path d="M4356 772 c-4 -18 -5 -36 -2 -39 11 -12 17 5 14 39 l-3 33 -9 -33z"/>
<path d="M5357 780 c-7 -28 1 -70 14 -70 11 0 11 47 0 74 -7 19 -8 18 -14 -4z"/>
<path d="M4438 784 c-5 -4 -8 -21 -8 -38 0 -21 3 -27 11 -19 6 6 9 23 7 38 -2
15 -6 23 -10 19z"/>
<path d="M5590 766 c0 -14 5 -28 10 -31 6 -4 10 7 10 24 0 17 -4 31 -10 31 -5
0 -10 -11 -10 -24z"/>
<path d="M4518 774 c-5 -4 -8 -21 -8 -38 1 -26 2 -28 11 -13 11 19 8 63 -3 51z"/>
<path d="M5435 770 c-8 -13 3 -50 16 -50 12 0 12 47 0 55 -5 3 -12 1 -16 -5z"/>
<path d="M5510 763 c0 -10 4 -24 9 -32 12 -19 24 3 16 29 -8 25 -25 26 -25 3z"/>
<path d="M4666 738 c-3 -13 -1 -27 4 -32 7 -7 10 1 10 22 0 37 -5 41 -14 10z"/>
<path d="M4747 753 c-11 -10 -8 -53 3 -53 6 0 10 14 10 30 0 31 -2 35 -13 23z"/>
<path d="M5207 754 c-10 -11 -9 -54 2 -54 15 0 18 13 12 38 -3 13 -9 20 -14
16z"/>
<path d="M5280 736 c0 -14 5 -28 10 -31 6 -4 10 7 10 24 0 17 -4 31 -10 31 -5
0 -10 -11 -10 -24z"/>
<path d="M4112 738 c-7 -7 -12 -25 -12 -40 0 -35 27 -49 46 -24 11 16 13 16
19 -4 5 -15 13 -20 28 -18 18 2 22 10 24 41 1 45 -14 58 -37 30 l-16 -21 -10
21 c-11 26 -26 31 -42 15z m28 -32 c0 -8 -4 -18 -10 -21 -5 -3 -10 3 -10 14 0
12 5 21 10 21 6 0 10 -6 10 -14z m60 -26 c0 -5 -5 -10 -11 -10 -5 0 -7 5 -4
10 3 6 8 10 11 10 2 0 4 -4 4 -10z"/>
<path d="M4820 719 c0 -17 4 -28 10 -24 6 3 10 17 10 31 0 13 -4 24 -10 24 -5
0 -10 -14 -10 -31z"/>
<path d="M4894 735 c-8 -20 3 -48 16 -40 13 8 13 55 0 55 -6 0 -13 -7 -16 -15z"/>
<path d="M5050 720 c0 -16 5 -30 10 -30 6 0 10 14 10 30 0 17 -4 30 -10 30 -5
0 -10 -13 -10 -30z"/>
<path d="M5122 728 c5 -32 28 -35 28 -4 0 17 -5 26 -16 26 -10 0 -14 -7 -12
-22z"/>
<path d="M5812 743 c-8 -3 -10 -9 -4 -16 5 -7 12 -24 16 -39 3 -16 13 -28 21
-28 17 0 20 26 5 35 -6 3 -7 17 -4 31 6 24 -4 29 -34 17z"/>
<path d="M4244 685 c-1 -39 2 -45 20 -45 15 0 17 3 9 11 -8 8 -9 19 -2 37 7
18 6 28 -3 34 -21 13 -23 10 -24 -37z"/>
<path d="M5687 715 c-20 -19 -20 -17 -7 -50 7 -20 16 -26 33 -23 29 4 34 38 9
68 -17 21 -19 21 -35 5z m26 -30 c4 -8 2 -17 -3 -20 -6 -4 -10 3 -10 14 0 25
6 27 13 6z"/>
<path d="M5756 714 c-3 -9 -6 -27 -6 -40 0 -19 5 -24 25 -24 14 0 25 5 25 10
0 6 -4 10 -10 10 -5 0 -10 14 -10 30 0 32 -14 40 -24 14z"/>
<path d="M4904 662 c-18 -12 -24 -42 -14 -63 11 -20 50 -27 50 -9 0 6 7 6 19
-1 30 -19 51 -4 51 36 0 42 -22 56 -49 31 -16 -15 -19 -15 -24 -1 -7 16 -16
19 -33 7z m18 -54 c-9 -9 -12 -7 -12 12 0 19 3 21 12 12 9 -9 9 -15 0 -24z"/>
<path d="M5028 665 c-10 -11 8 -80 22 -83 12 -2 15 8 15 43 0 34 -4 45 -16 45
-9 0 -18 -2 -21 -5z"/>
<path d="M4902 470 c-38 -23 -56 -62 -48 -106 8 -42 42 -70 101 -85 94 -22
122 -61 70 -95 -25 -16 -65 -16 -121 1 -16 5 -23 2 -27 -14 -7 -29 19 -41 93
-41 70 0 111 17 128 55 34 74 -14 128 -131 149 -43 8 -65 43 -47 77 18 32 64
36 163 13 23 -5 27 -3 27 15 0 49 -144 70 -208 31z"/>
</g>
</svg>
